<svg xmlns="http://www.w3.org/2000/svg" width="30" height="30" viewBox="0 0 30 30">
    <g fill="none" fill-rule="evenodd">
        <path fill="#FFF" d="M30 13.502c0-.027-.013-.05-.016-.077a.692.692 0 0 0-.088-.274c-.013-.02-.016-.046-.03-.067-.017-.023-.041-.035-.06-.055-.018-.02-.025-.044-.045-.062l-4.707-4.212V6.881c0-1.664-1.313-2.963-3.141-3.13a.664.664 0 0 0-.174-.023h-2.465a.699.699 0 0 0-.194-.32L15.477.182a.714.714 0 0 0-.953 0L10.92 3.408a.705.705 0 0 0-.193.32H4.025c-.06 0-.113.02-.168.033-.117-.01-.232-.033-.352-.033-1.829 0-3.316 1.415-3.316 3.153v.827c0 .394.32.715.715.715h4.487a.734.734 0 0 0-.216.128L.24 12.967c-.029.026-.042.061-.066.09-.012.014-.028.022-.039.036-.01.014-.011.03-.019.043a.701.701 0 0 0-.099.288c-.003.027-.017.05-.017.078v15.782c0 .007.004.012.004.018a.67.67 0 0 0 .031.202c.003.011.011.02.016.031.011.028.026.053.039.08a.758.758 0 0 0 .157.201.723.723 0 0 0 .142.096c.024.012.046.027.072.037.08.03.164.052.253.052h28.573c.039 0 .073-.017.11-.024.044-.007.088-.01.128-.025.042-.015.077-.037.114-.059a.754.754 0 0 0 .102-.068.853.853 0 0 0 .085-.085.781.781 0 0 0 .075-.112c.018-.034.037-.065.051-.1.003-.01.01-.019.014-.029a.703.703 0 0 0 .028-.18c.001-.013.006-.022.006-.035V13.502zM5.391 10.277v5.711l-3.54-2.543 3.54-3.168zM1.618 6.992v-.11c0-.934.864-1.722 1.887-1.722 1.022 0 1.886.788 1.886 1.721v.111H1.618zM15 1.676l2.292 2.052h-4.584L15 1.676zm6.695 3.493c1.136.07 1.93.774 1.93 1.712v9.81l-5.317 3.823-2.897-2.08a.712.712 0 0 0-.832 0l-2.89 2.076-4.904-3.52c.014-.059.035-.113.035-.175V6.881a3.02 3.02 0 0 0-.544-1.72h15.342a.49.49 0 0 0 .077.008zm6.45 8.271l-3.091 2.223v-4.989l3.091 2.766zm-8.61 7.955l9.037-6.499v12.99l-9.037-6.49zm-4.54-1.5l12.068 8.67-24.127.003 12.059-8.673zM1.429 14.903l9.035 6.488-9.035 6.498V14.903zm9.246-4.69a.715.715 0 0 1 0-1.431h9.028a.716.716 0 0 1 0 1.432h-9.028zm0 4.006a.715.715 0 0 1 0-1.432h4.436a.715.715 0 0 1 0 1.432h-4.436z"/>
        <path d="M0 0h30v30H0z"/>
    </g>
</svg>
